<?xml version="1.0" encoding="UTF-8" standalone="no"?>
<!-- Created with Inkscape (http://www.inkscape.org/) -->

<svg
   xmlns:dc="http://purl.org/dc/elements/1.1/"
   xmlns:cc="http://creativecommons.org/ns#"
   xmlns:rdf="http://www.w3.org/1999/02/22-rdf-syntax-ns#"
   xmlns:svg="http://www.w3.org/2000/svg"
   xmlns="http://www.w3.org/2000/svg"
   xmlns:sodipodi="http://sodipodi.sourceforge.net/DTD/sodipodi-0.dtd"
   xmlns:inkscape="http://www.inkscape.org/namespaces/inkscape"
   width="87mm"
   height="74mm"
   viewBox="0 0 87 74"
   version="1.1"
   id="svg8"
   inkscape:version="0.92.5 (2060ec1f9f, 2020-04-08)"
   sodipodi:docname="logo-inkscape.svg">
  <defs
     id="defs2" />
  <sodipodi:namedview
     id="base"
     pagecolor="#ffffff"
     bordercolor="#666666"
     borderopacity="1.0"
     inkscape:pageopacity="0.0"
     inkscape:pageshadow="2"
     inkscape:zoom="1.28"
     inkscape:cx="313.03687"
     inkscape:cy="109.40102"
     inkscape:document-units="px"
     inkscape:current-layer="layer2"
     showgrid="false"
     showborder="true"
     inkscape:window-width="1920"
     inkscape:window-height="1080"
     inkscape:window-x="0"
     inkscape:window-y="0"
     inkscape:window-maximized="0" />
  <metadata
     id="metadata5">
    <rdf:RDF>
      <cc:Work
         rdf:about="">
        <dc:format>image/svg+xml</dc:format>
        <dc:type
           rdf:resource="http://purl.org/dc/dcmitype/StillImage" />
        <dc:title></dc:title>
      </cc:Work>
    </rdf:RDF>
  </metadata>
  <g
     inkscape:groupmode="layer"
     id="layer2"
     inkscape:label="Layer"
     style="display:inline"
     transform="translate(0,-223)">
    <path
       style="fill:#1d1d1d;fill-opacity:1;stroke:#000000;stroke-width:0.26458332px;stroke-linecap:butt;stroke-linejoin:miter;stroke-opacity:1"
       d="m 2.4315898,258.01722 c 0,0 -4.774419,-27.07359 0,-33.73437 0,0 3.502194,-1.94931 23.1993572,11.59249 z"
       id="path831"
       inkscape:connector-curvature="0"
       sodipodi:nodetypes="cccc" />
    <path
       style="fill:#1d1d1d;fill-opacity:1;stroke:#000000;stroke-width:0.26458332px;stroke-linecap:butt;stroke-linejoin:miter;stroke-opacity:1"
       d="m 57.651657,235.17433 c 14.81667,-15.34583 16.80105,-11.24479 16.80105,-11.24479 0,0 1.60166,1.70488 4.51207,22.60696 z"
       id="path869"
       inkscape:connector-curvature="0"
       sodipodi:nodetypes="ccc" />
    <path
       style="fill:#fffff0;fill-opacity:0.99333335;stroke:#000000;stroke-width:0.26458332;stroke-linecap:butt;stroke-linejoin:miter;stroke-miterlimit:4;stroke-dasharray:none;stroke-opacity:1"
       d="m 86.943887,257.43348 -2.64582,-5.55624 c -9.26042,-12.56771 -37.57084,-22.3573 -37.57084,-22.3573 -13.09687,-1.71979 -19.05,2.11667 -19.05,2.11667 0,0 -26.4583352,22.48958 -25.3999992,25.26771 0,0 8.2029152,49.12032 50.1107792,38.92399 0,0 34.95276,-10.87816 34.55588,-38.39483 z"
       id="path867"
       inkscape:connector-curvature="0"
       sodipodi:nodetypes="cccsccc" />
    <path
       style="fill:#2cb9b2;fill-opacity:1;stroke:#000000;stroke-width:0.26458332px;stroke-linecap:butt;stroke-linejoin:miter;stroke-opacity:1"
       d="m 26.008497,265.61349 -1.49671,-5.33203 2.71279,-3.83531 4.58367,-0.74836 4.02241,1.30962 2.43215,3.3676 0.46772,4.11595 -2.89987,1.87088 h -3.3676 l -4.39658,-0.18709 z"
       id="path914"
       inkscape:connector-curvature="0" />
    <path
       style="fill:#2cb9b2;fill-opacity:1;stroke:#000000;stroke-width:0.26458332px;stroke-linecap:butt;stroke-linejoin:miter;stroke-opacity:1"
       d="m 58.281297,261.49754 0.8419,-3.46114 2.99342,-2.43215 2.71278,-1.02899 3.08696,0.65481 1.77735,1.59025 0.93544,4.30304 -0.8419,2.80633 -4.58367,0.65481 -3.27405,-0.28063 -3.08697,-1.6838 z"
       id="path916"
       inkscape:connector-curvature="0" />
    <path
       style="fill:#1d1d1d;fill-opacity:1;stroke:#000000;stroke-width:0.26458332px;stroke-linecap:butt;stroke-linejoin:miter;stroke-opacity:1"
       d="m 27.411667,261.77817 0.8419,-2.80633 2.71278,-1.40316 1.77735,0.18709 2.43215,1.40316 0.37418,2.5257 -0.28064,2.80633 -1.96443,1.21607 -2.61924,-0.18708 -2.5257,-1.96443 z"
       id="path918"
       inkscape:connector-curvature="0" />
    <path
       style="fill:#1d1d1d;fill-opacity:1;stroke:#000000;stroke-width:0.26458332px;stroke-linecap:butt;stroke-linejoin:miter;stroke-opacity:1"
       d="m 61.087627,261.87172 -0.8419,-2.15152 1.7234,-2.98503 2.88124,-0.77202 2.93541,1.69476 0.89727,3.34865 -0.87322,1.51246 -1.16656,1.16656 h -2.28159 z"
       id="path920"
       inkscape:connector-curvature="0" />
    <path
       style="fill:#2c271f;fill-opacity:1;stroke:#000000;stroke-width:0.26458332px;stroke-linecap:butt;stroke-linejoin:miter;stroke-opacity:1"
       d="m 42.285217,270.19716 c 0,0 0.56126,-2.24506 3.18051,-3.27405 2.61924,-1.02899 7.01582,-0.46772 7.01582,-0.46772 0,0 2.99342,0.65481 2.99342,3.55469 0,0 -3.64823,5.05139 -5.51912,4.49012 0,0 -5.23848,-1.6838 -7.67063,-4.30304 z"
       id="path932"
       inkscape:connector-curvature="0" />
    <ellipse
       style="fill:#fffffd;fill-opacity:1;stroke:#ffffff;stroke-width:0.26458332;stroke-opacity:1"
       id="path982"
       cx="63.825928"
       cy="257.87582"
       rx="0.81442058"
       ry="0.72347003" />
    <ellipse
       style="display:inline;fill:#fffffd;fill-opacity:1;stroke:#ffffff;stroke-width:0.26458332;stroke-opacity:1"
       id="path982-3"
       cx="30.217979"
       cy="259.81375"
       rx="0.81442058"
       ry="0.72347003" />
    <path
       style="fill:none;stroke:#000000;stroke-width:0.63499999;stroke-linecap:butt;stroke-linejoin:miter;stroke-miterlimit:4;stroke-dasharray:none;stroke-opacity:1"
       d="m 50.431397,274.6314 0.19843,5.88698 c 0,0 -5.29166,6.61458 -11.37708,6.68073"
       id="path1019"
       inkscape:connector-curvature="0" />
    <path
       style="fill:none;stroke:#000000;stroke-width:0.63499999;stroke-linecap:butt;stroke-linejoin:miter;stroke-miterlimit:4;stroke-dasharray:none;stroke-opacity:1"
       d="m 50.629827,280.51838 c 0,0 4.70482,6.14259 12.00128,5.86195"
       id="path4729"
       inkscape:connector-curvature="0" />
  </g>
</svg>
